<?xml version="1.0" encoding="UTF-8"?>
<svg xmlns="http://www.w3.org/2000/svg" viewBox="0 0 128 128" role="img" aria-label="Streak fire">

  <defs>
    <linearGradient id="gradBg" x1="0" y1="0" x2="0" y2="1">
      <stop offset="0%" stop-color="#12071F"/>
      <stop offset="100%" stop-color="#1B0E2E"/>
    </linearGradient>
    <linearGradient id="gradPinkPurple" x1="0" y1="0" x2="1" y2="0">
      <stop offset="0%" stop-color="#FF5DA2"/>
      <stop offset="100%" stop-color="#7B5CFA"/>
    </linearGradient>
    <linearGradient id="gradPurplePink" x1="0" y1="0" x2="1" y2="1">
      <stop offset="0%" stop-color="#7B5CFA"/>
      <stop offset="100%" stop-color="#FF5DA2"/>
    </linearGradient>
    <radialGradient id="gradCyanPop" cx="50%" cy="50%" r="60%">
      <stop offset="0%" stop-color="#34E4EA" stop-opacity="0.95"/>
      <stop offset="100%" stop-color="#34E4EA" stop-opacity="0"/>
    </radialGradient>
    <radialGradient id="gradAmberPop" cx="50%" cy="50%" r="60%">
      <stop offset="0%" stop-color="#FFB627" stop-opacity="0.95"/>
      <stop offset="100%" stop-color="#FFB627" stop-opacity="0"/>
    </radialGradient>
    <filter id="glowPink" x="-60%" y="-60%" width="220%" height="220%">
      <feGaussianBlur stdDeviation="2.5" result="b" in="SourceGraphic"/>
      <feFlood flood-color="#FF5DA2" flood-opacity="0.9"/>
      <feComposite in2="b" operator="in" result="glow"/>
      <feMerge><feMergeNode in="glow"/><feMergeNode in="SourceGraphic"/></feMerge>
    </filter>
    <filter id="glowPurple" x="-60%" y="-60%" width="220%" height="220%">
      <feGaussianBlur stdDeviation="2.5" result="b" in="SourceGraphic"/>
      <feFlood flood-color="#7B5CFA" flood-opacity="0.85"/>
      <feComposite in2="b" operator="in" result="glow"/>
      <feMerge><feMergeNode in="glow"/><feMergeNode in="SourceGraphic"/></feMerge>
    </filter>
    <filter id="glowCyan" x="-60%" y="-60%" width="220%" height="220%">
      <feGaussianBlur stdDeviation="2" result="b" in="SourceGraphic"/>
      <feFlood flood-color="#34E4EA" flood-opacity="0.9"/>
      <feComposite in2="b" operator="in" result="glow"/>
      <feMerge><feMergeNode in="glow"/><feMergeNode in="SourceGraphic"/></feMerge>
    </filter>
    <filter id="glowAmber" x="-60%" y="-60%" width="220%" height="220%">
      <feGaussianBlur stdDeviation="2.5" result="b" in="SourceGraphic"/>
      <feFlood flood-color="#FFB627" flood-opacity="0.9"/>
      <feComposite in2="b" operator="in" result="glow"/>
      <feMerge><feMergeNode in="glow"/><feMergeNode in="SourceGraphic"/></feMerge>
    </filter>
    <filter id="softBlob" x="-60%" y="-60%" width="220%" height="220%">
      <feGaussianBlur stdDeviation="28" result="b" in="SourceGraphic"/>
      <feFlood flood-color="#7B5CFA" flood-opacity="0.55"/>
      <feComposite in2="b" operator="in" result="glow"/>
      <feMerge><feMergeNode in="glow"/><feMergeNode in="SourceGraphic"/></feMerge>
    </filter>

  </defs>
  <g filter="url(#glowAmber)">
    <path d="M64,8 C 40,40 24,56 28,82 C 32,108 56,118 64,118
             C 72,118 96,108 100,82 C 104,56 88,40 64,8 Z"
          fill="url(#gradPinkPurple)" stroke="#FFB627" stroke-width="3"/>
    <path d="M64,32 C 50,58 44,68 46,84 C 48,100 60,104 64,104
             C 68,104 80,100 82,84 C 84,68 78,58 64,32 Z"
          fill="#FFB627"/>
    <path d="M64,56 C 58,72 56,80 58,90 C 60,100 68,100 70,90
             C 72,80 70,72 64,56 Z" fill="#FFFFFF" opacity="0.85"/>
  </g>
  <circle cx="40"  cy="40" r="3" fill="#34E4EA" filter="url(#glowCyan)"/>
  <circle cx="90"  cy="44" r="3" fill="#34E4EA" filter="url(#glowCyan)"/>
</svg>
